<?xml version="1.0" encoding="utf-8"?>
<!-- Generator: Adobe Illustrator 28.1.0, SVG Export Plug-In . SVG Version: 6.00 Build 0)  -->
<svg version="1.1" id="Layer_1" xmlns="http://www.w3.org/2000/svg" xmlns:xlink="http://www.w3.org/1999/xlink" x="0px" y="0px"
	 viewBox="0 0 500 500" style="enable-background:new 0 0 500 500;" xml:space="preserve">
<style type="text/css">
	.st0{fill:#00010C;}
	.st1{opacity:0.83;}
	.st2{fill:#FF9900;}
	.st3{fill:#FFFFFF;}
</style>
<g>
	<path class="st0" d="M467.21,421.82L280.88,99.09c-13.24-22.93-46.33-22.93-59.57,0L34.98,421.82
		c-13.24,22.93,3.31,51.59,29.79,51.59h372.66C463.91,473.41,480.45,444.75,467.21,421.82z M214.4,329.04l2.81-3.57L214.4,329.04z
		 M229.21,337.98l4.34-5.62L229.21,337.98z M244.79,346.15l4.34-4.85L244.79,346.15z M261.13,347.17l-4.85,5.36L261.13,347.17z
		 M259.09,353.3l3.83-4.85L259.09,353.3z M274.15,363.51l5.87-6.89L274.15,363.51z M288.19,373.21l6.64-6.64L288.19,373.21z
		 M305.3,386.23l8.43-6.89L305.3,386.23z M320.87,401.55l9.96-7.4L320.87,401.55z M353.04,417.13L335.17,423L353.04,417.13z
		 M344.62,445.47l18.89-4.34L344.62,445.47z"/>
</g>
<g>
	<g class="st1">
		<path d="M122,437c32.14-24.34,64.54-43.16,98-38c4.91-66.26,115.81-124.78,217-184C287.76,262.59,164.23,325.54,122,437z
			 M214.4,329.04l2.81-3.57L214.4,329.04z M229.21,337.98l4.34-5.62L229.21,337.98z M244.79,346.15l4.34-4.85L244.79,346.15z"/>
	</g>
	<g>
		<path class="st2" d="M122,437c32.14-24.34,64.54-43.16,98-38c4.91-66.26,115.81-124.78,217-184
			C287.76,262.59,164.23,325.54,122,437z M214.4,329.04l2.81-3.57L214.4,329.04z M229.21,337.98l4.34-5.62L229.21,337.98z
			 M244.79,346.15l4.34-4.85L244.79,346.15z"/>
	</g>
</g>
<path class="st2" d="M292.82,473H404c-41.28-89.38-144.85-142.72-271-182.98C253.76,351.22,383.89,429.01,292.82,473z M214.4,329.04
	l2.81-3.57L214.4,329.04z M229.21,337.98l4.34-5.62L229.21,337.98z M244.79,346.15l4.34-4.85L244.79,346.15z M261.13,347.17
	l-4.85,5.36L261.13,347.17z M259.09,353.3l3.83-4.85L259.09,353.3z M274.15,363.51l5.87-6.89L274.15,363.51z M288.19,373.21
	l6.64-6.64L288.19,373.21z M363.51,441.13l-18.89,4.34L363.51,441.13z M353.04,417.13L335.17,423L353.04,417.13z M305.3,386.23
	l8.43-6.89L305.3,386.23z M320.87,401.55l9.96-7.4L320.87,401.55z"/>
<path class="st3" d="M347.37,444.83c1.58,9.11,1.11,18.47-1.74,28.12L359,473c1.52-10.74,1.03-20.88-1.33-30.53L347.37,444.83z"/>
<path class="st3" d="M347.69,418.89c-4.9-8.01-11.24-15.71-18.92-23.2l-6.15,4.58c6.59,7.04,12.06,14.21,16.22,21.54L347.69,418.89z
	"/>
<path class="st3" d="M195,318c6.87,3.35,13.59,6.7,20.17,10.07l0.65-0.83C209.08,324.17,202.15,321.1,195,318z"/>
<path class="st3" d="M247.99,342.57c-5.24-2.64-10.65-5.27-16.21-7.92l-1.15,1.49c5.28,2.82,10.46,5.66,15.5,8.5L247.99,342.57z"/>
<path class="st3" d="M278.14,358.83c-5.2-3.03-10.63-6.05-16.27-9.06l-2.17,2.74c5.37,3.21,10.57,6.44,15.56,9.69L278.14,358.83z"/>
<path class="st3" d="M311.68,381.01c-5.67-4.35-11.81-8.64-18.39-12.9l-3.79,3.79c6.1,4.38,11.81,8.8,17.1,13.26L311.68,381.01z"/>
</svg>
